<svg width="24" height="24" viewBox="0 0 24 24" fill="none" xmlns="http://www.w3.org/2000/svg">
<g clip-path="url(#clip0_3_46)">
<path d="M8.07655 18.6281C8.07655 18.7219 7.96874 18.7969 7.8328 18.7969C7.67811 18.8109 7.5703 18.7359 7.5703 18.6281C7.5703 18.5344 7.67811 18.4594 7.81405 18.4594C7.95468 18.4453 8.07655 18.5203 8.07655 18.6281ZM6.61874 18.4172C6.58593 18.5109 6.67968 18.6187 6.8203 18.6469C6.94218 18.6937 7.0828 18.6469 7.11093 18.5531C7.13905 18.4594 7.04999 18.3516 6.90936 18.3094C6.78749 18.2766 6.65155 18.3234 6.61874 18.4172ZM8.69061 18.3375C8.55468 18.3703 8.46093 18.4594 8.47499 18.5672C8.48905 18.6609 8.61093 18.7219 8.75155 18.6891C8.88749 18.6563 8.98124 18.5672 8.96718 18.4734C8.95311 18.3844 8.82655 18.3234 8.69061 18.3375ZM11.775 0.375C5.27343 0.375 0.299988 5.31094 0.299988 11.8125C0.299988 17.0109 3.57186 21.4594 8.2453 23.025C8.8453 23.1328 9.05624 22.7625 9.05624 22.4578C9.05624 22.1672 9.04218 20.5641 9.04218 19.5797C9.04218 19.5797 5.76093 20.2828 5.07186 18.1828C5.07186 18.1828 4.53749 16.8187 3.76874 16.4672C3.76874 16.4672 2.6953 15.7312 3.84374 15.7453C3.84374 15.7453 5.01093 15.8391 5.65311 16.9547C6.67968 18.7641 8.39999 18.2438 9.0703 17.9344C9.17811 17.1844 9.4828 16.6641 9.8203 16.3547C7.19999 16.0641 4.55624 15.6844 4.55624 11.175C4.55624 9.88594 4.91249 9.23906 5.66249 8.41406C5.54061 8.10938 5.14218 6.85312 5.78436 5.23125C6.76405 4.92656 9.01874 6.49688 9.01874 6.49688C9.95624 6.23438 10.9641 6.09844 11.9625 6.09844C12.9609 6.09844 13.9687 6.23438 14.9062 6.49688C14.9062 6.49688 17.1609 4.92187 18.1406 5.23125C18.7828 6.85781 18.3844 8.10938 18.2625 8.41406C19.0125 9.24375 19.4719 9.89062 19.4719 11.175C19.4719 15.6984 16.7109 16.0594 14.0906 16.3547C14.5219 16.725 14.8875 17.4281 14.8875 18.5297C14.8875 20.1094 14.8734 22.0641 14.8734 22.4484C14.8734 22.7531 15.0891 23.1234 15.6844 23.0156C20.3719 21.4594 23.55 17.0109 23.55 11.8125C23.55 5.31094 18.2766 0.375 11.775 0.375ZM4.85624 16.5422C4.7953 16.5891 4.80936 16.6969 4.88905 16.7859C4.96405 16.8609 5.07186 16.8938 5.1328 16.8328C5.19374 16.7859 5.17968 16.6781 5.09999 16.5891C5.02499 16.5141 4.91718 16.4812 4.85624 16.5422ZM4.34999 16.1625C4.31718 16.2234 4.36405 16.2984 4.4578 16.3453C4.5328 16.3922 4.62655 16.3781 4.65936 16.3125C4.69218 16.2516 4.6453 16.1766 4.55155 16.1297C4.4578 16.1016 4.3828 16.1156 4.34999 16.1625ZM5.86874 17.8312C5.79374 17.8922 5.82186 18.0328 5.92968 18.1219C6.03749 18.2297 6.17343 18.2438 6.23436 18.1688C6.2953 18.1078 6.26718 17.9672 6.17343 17.8781C6.0703 17.7703 5.92968 17.7562 5.86874 17.8312ZM5.33436 17.1422C5.25936 17.1891 5.25936 17.3109 5.33436 17.4188C5.40936 17.5266 5.53593 17.5734 5.59686 17.5266C5.67186 17.4656 5.67186 17.3438 5.59686 17.2359C5.53124 17.1281 5.40936 17.0813 5.33436 17.1422Z" fill="white"/>
</g>
<defs>
<clipPath id="clip0_3_46">
<rect width="23.25" height="24" fill="white" transform="translate(0.299988)"/>
</clipPath>
</defs>
</svg>
